<svg xmlns="http://www.w3.org/2000/svg" viewBox="0 0 100 100" width="100" height="100">
  <!-- Playground Equipment -->
  <!-- Slide -->
  <rect x="10" y="30" width="25" height="40" fill="#FF6B6B" rx="3"/>
  <rect x="12" y="32" width="21" height="8" fill="#FF8E8E" rx="2"/>
  
  <!-- Swing Set -->
  <rect x="45" y="20" width="3" height="50" fill="#4ECDC4"/>
  <rect x="62" y="20" width="3" height="50" fill="#4ECDC4"/>
  <rect x="43" y="18" width="25" height="4" fill="#4ECDC4" rx="2"/>
  
  <!-- Swings -->
  <rect x="48" y="45" width="8" height="3" fill="#45B7B8" rx="1"/>
  <rect x="59" y="45" width="8" height="3" fill="#45B7B8" rx="1"/>
  <line x1="50" y1="22" x2="52" y2="45" stroke="#333" stroke-width="1"/>
  <line x1="54" y1="22" x2="52" y2="45" stroke="#333" stroke-width="1"/>
  <line x1="61" y1="22" x2="63" y2="45" stroke="#333" stroke-width="1"/>
  <line x1="65" y1="22" x2="63" y2="45" stroke="#333" stroke-width="1"/>
  
  <!-- Seesaw -->
  <rect x="75" y="50" width="20" height="3" fill="#F7DC6F" rx="1"/>
  <rect x="84" y="45" width="2" height="10" fill="#85929E"/>
  <circle cx="77" cy="51" r="2" fill="#F39C12"/>
  <circle cx="93" cy="51" r="2" fill="#E74C3C"/>
  
  <!-- Ground -->
  <rect x="0" y="70" width="100" height="30" fill="#52C41A" opacity="0.3"/>
  
  <!-- Sun -->
  <circle cx="85" cy="15" r="8" fill="#F1C40F"/>
  <line x1="85" y1="3" x2="85" y2="7" stroke="#F39C12" stroke-width="2"/>
  <line x1="97" y1="15" x2="93" y2="15" stroke="#F39C12" stroke-width="2"/>
  <line x1="85" y1="27" x2="85" y2="23" stroke="#F39C12" stroke-width="2"/>
  <line x1="73" y1="15" x2="77" y2="15" stroke="#F39C12" stroke-width="2"/>
  
  <!-- Clouds -->
  <circle cx="20" cy="12" r="4" fill="white" opacity="0.8"/>
  <circle cx="25" cy="12" r="5" fill="white" opacity="0.8"/>
  <circle cx="30" cy="12" r="4" fill="white" opacity="0.8"/>
</svg>